PathFileType	4	(X/Y/Z)	 s09c0102.trc
DataRate	CameraRate	NumFrames	NumMarkers	Units	OrigDataRate	OrigDataStartFrame	OrigNumFrames
200	200	5	50	mm	200	1251	2000
Frame#	Time	racr			lacr			c7			jug			rlel			rdr			llel			ldr			s2			lic			ric			lasi			rasi			rpsi			lpsi			rgt			lgt			rth1			rth2			rth3			rth4			rlfc			rmfc			rsh1			rsh2			rsh3			rsh4			rlmal			rmmal			rcal			rtoe			rmt5			lth1			lth2			lth4			lth3			llfc			lmfc			llmal			lmmal			lcal			lmt5			lsh1			lsh2			lsh3			lsh4			ltoe			SBIKE			LBIKE			RBIKE			
		X1	Y1	Z1	X2	Y2	Z2	X3	Y3	Z3	X4	Y4	Z4	X5	Y5	Z5	X6	Y6	Z6	X7	Y7	Z7	X8	Y8	Z8	X9	Y9	Z9	X10	Y10	Z10	X11	Y11	Z11	X12	Y12	Z12	X13	Y13	Z13	X14	Y14	Z14	X15	Y15	Z15	X16	Y16	Z16	X17	Y17	Z17	X18	Y18	Z18	X19	Y19	Z19	X20	Y20	Z20	X21	Y21	Z21	X22	Y22	Z22	X23	Y23	Z23	X24	Y24	Z24	X25	Y25	Z25	X26	Y26	Z26	X27	Y27	Z27	X28	Y28	Z28	X29	Y29	Z29	X30	Y30	Z30	X31	Y31	Z31	X32	Y32	Z32	X33	Y33	Z33	X34	Y34	Z34	X35	Y35	Z35	X36	Y36	Z36	X37	Y37	Z37	X38	Y38	Z38	X39	Y39	Z39	X40	Y40	Z40	X41	Y41	Z41	X42	Y42	Z42	X43	Y43	Z43	X44	Y44	Z44	X45	Y45	Z45	X46	Y46	Z46	X47	Y47	Z47	X48	Y48	Z48	X49	Y49	Z49	X50	Y50	Z50	
1251	6.2550	551.006402	1226.965671	-138.416268	539.442323	1216.604819	-438.447334	526.805347	1263.249232	-290.447310	489.779276	1126.413809	-279.489507	520.682823	1032.408833	23.078650	703.106621	884.528338	-48.035619	505.932742	994.851795	-592.285967	689.186498	877.250384	-469.520797	27.516246	1139.640393	-237.761392	147.230337	1133.437153	-400.932639	177.840061	1125.493887	-99.022265	190.570494	1074.878453	-375.637783	213.609102	1070.765602	-123.681796	64.300816	1166.237081	-182.119249	53.325748	1175.301385	-289.752967	139.545599	980.995153	-57.571515	128.223057	1030.582065	-439.204350	212.075107	862.457423	-62.548899	273.792926	799.610557	-63.587839	290.580833	712.224268	-74.249146	303.376963	814.316828	-80.130101	324.078784	619.353047	-103.089632	310.869430	600.407412	-200.005665	266.282397	538.226268	-70.830878	250.889974	450.583459	-83.369277	194.944150	383.329460	-81.808476	275.685623	442.605618	-113.048807	148.667552	292.514733	-79.668008	155.945963	297.861944	-156.233286	67.839014	292.781500	-117.630773	289.055913	150.036594	-128.770801	212.340242	177.636033	-61.303269	257.376317	980.847437	-423.964328	341.658950	978.356292	-412.028403	351.442173	1010.192474	-393.445543	419.023585	931.713175	-412.170651	502.132473	871.395706	-388.045980	509.919334	855.592806	-286.083077	303.683036	556.334053	-410.214389	317.088842	565.164099	-334.814993	223.196119	526.699236	-372.429447	386.897211	467.415028	-432.057758	452.484965	786.742462	-412.505996	424.053943	704.617690	-406.562351	356.676089	646.076119	-410.196002	444.787218	691.686202	-375.292459	478.395210	474.584096	-363.163573	-65.625855	852.840083	-239.919120	20.656737	84.777205	-441.967167	21.046541	84.125792	-43.887264	
1252	6.2600	550.380075	1226.245737	-137.675095	540.332508	1216.107610	-436.892489	527.588696	1262.513480	-288.300778	489.416932	1126.169662	-278.135966	519.749030	1031.323011	23.306689	702.803532	884.294402	-47.947338	506.257435	995.565316	-592.130526	689.246085	877.333198	-469.520162	27.456651	1140.286937	-239.195749	148.005789	1133.660277	-401.673598	176.676382	1126.117163	-99.724185	191.523727	1074.908672	-376.404715	212.586792	1071.311699	-123.903855	63.865835	1166.880353	-183.555247	53.632177	1175.776313	-291.210816	138.594648	981.894135	-58.083727	128.916024	1029.658618	-439.744788	213.337177	864.279387	-63.030078	276.034974	802.532609	-63.997206	294.010514	715.736373	-74.727777	305.564456	817.953978	-79.436581	328.672004	622.327282	-102.858802	314.434563	603.474263	-199.853797	268.171715	542.327243	-70.784889	250.125203	455.215773	-83.476281	192.271119	389.663577	-81.865214	274.514392	446.570222	-113.340033	143.374380	300.035951	-79.547978	151.079255	305.120947	-156.446184	62.572298	302.167450	-117.862380	280.677539	154.345311	-128.108413	204.339036	183.832606	-61.268482	257.455269	977.518029	-424.106408	341.600818	973.738454	-412.401824	351.943304	1005.684903	-393.808938	418.385816	926.267328	-412.524045	501.065888	864.911481	-387.058171	508.504696	848.457949	-285.618384	308.057210	545.893959	-410.378802	320.796828	555.215866	-334.968742	227.906430	513.396765	-372.958947	393.894837	460.739369	-432.745713	452.584040	778.817893	-412.230617	425.507566	696.059807	-406.214563	359.227836	636.540432	-410.210655	446.584308	683.632356	-375.008921	485.167461	471.645153	-363.460598	-65.600209	852.840530	-239.877666	20.673709	84.781381	-441.968517	21.051668	84.122669	-43.898091	
1253	6.2650	549.632386	1225.766154	-135.959344	541.276673	1215.752915	-435.152062	528.131234	1261.754983	-285.751330	489.124124	1125.821891	-276.423154	518.688011	1030.215852	23.710592	702.829253	884.216227	-47.390181	506.783547	996.352034	-591.779609	689.335224	877.408494	-469.436628	27.426724	1140.716627	-240.645351	148.917850	1133.757176	-402.572174	175.472468	1126.557405	-100.375460	192.560845	1074.866264	-377.157473	211.504990	1071.692787	-124.260170	63.380051	1167.363535	-184.980216	53.972994	1176.078006	-292.591374	137.775543	982.801884	-58.613004	129.528774	1028.306139	-440.065275	214.880998	866.358622	-63.342514	278.692977	805.720873	-64.464678	298.308803	719.286309	-74.848910	307.796564	821.521187	-80.943005	333.308022	625.255608	-102.892627	318.191099	606.926204	-199.784133	270.325577	546.598596	-70.624021	249.948594	460.325845	-83.254020	189.914099	396.293001	-81.928624	272.968369	450.652848	-114.726545	138.969741	308.029828	-79.260305	146.676002	312.856736	-156.717928	57.827242	311.938596	-118.087711	272.440009	159.192568	-127.987126	196.750121	190.564188	-61.219973	257.395577	973.483462	-424.318091	341.556541	968.366305	-412.613692	352.423434	1000.354124	-394.378172	417.555375	919.610659	-412.327304	499.726277	856.672802	-386.809666	506.647611	840.685287	-285.375689	312.071855	534.658869	-410.443637	325.078588	544.512396	-334.183755	232.677358	499.348780	-373.134174	400.648550	453.172597	-433.165711	452.375545	770.015255	-411.945822	426.726949	686.581003	-405.902655	361.563872	626.158848	-410.189180	447.629277	675.042703	-374.630856	491.447784	468.051732	-363.774553	-65.585587	852.846638	-239.855887	20.666571	84.782063	-441.962886	21.045525	84.123281	-43.907045	
1254	6.2700	548.805701	1225.320669	-134.249051	542.326632	1215.475813	-433.187484	528.690343	1261.082634	-283.019491	488.872180	1125.557761	-274.566466	517.556652	1028.864946	24.335670	702.414666	884.477438	-46.713787	507.251906	997.272232	-591.353436	689.426116	877.535225	-469.210534	27.383658	1140.941647	-242.141460	149.875911	1133.575747	-403.516919	174.281199	1126.905971	-100.973660	193.590265	1074.691938	-377.960328	210.387156	1071.938737	-124.673076	62.835104	1167.690595	-186.383799	54.292421	1176.203645	-294.086557	136.938372	983.686198	-59.259573	130.181736	1026.653209	-440.299887	216.730692	868.645241	-63.597189	281.726636	809.103657	-64.961871	302.986053	723.171506	-74.791801	310.257079	825.541263	-81.850115	338.014294	628.509748	-102.461815	322.288942	610.453282	-199.457426	272.650041	551.224789	-70.397976	249.748917	465.620107	-83.268982	187.900788	403.233464	-81.990718	272.567705	455.236895	-114.705482	134.274084	316.632522	-80.107258	142.380671	321.102556	-156.927403	53.568733	322.248582	-118.354356	264.541748	164.555373	-127.832081	189.623045	197.761107	-61.211987	257.275125	968.786152	-424.514204	341.285721	962.289492	-412.926091	352.802945	994.320504	-395.112466	416.459084	912.183644	-412.137568	497.733069	848.348662	-386.387412	504.966107	832.299433	-285.276558	315.659692	523.032021	-410.809479	328.573133	533.191694	-334.543557	237.092356	484.984554	-373.364634	406.977017	444.990641	-433.518191	451.835725	760.626764	-411.620765	427.651927	676.666619	-405.569210	363.511097	615.111766	-410.137102	448.511661	665.727586	-374.158753	497.161331	463.645150	-364.198111	-65.567479	852.841791	-239.839119	20.669674	84.781502	-441.952120	21.067936	84.120077	-43.897024	
1255	6.2750	547.781787	1224.891209	-131.864665	543.497751	1215.267803	-430.851752	529.185075	1260.532036	-279.999281	488.834109	1125.339752	-272.412636	516.417684	1027.363025	25.134239	702.244303	884.142536	-46.219325	507.807950	998.214296	-590.701358	689.200844	877.610850	-468.459335	27.410032	1140.897582	-243.565636	150.900051	1133.238264	-404.451536	173.071068	1127.156551	-101.575781	194.668464	1074.259185	-378.746813	209.392271	1072.210036	-124.967992	62.258044	1167.804957	-187.856615	54.637941	1176.066093	-295.623541	136.431602	984.653001	-59.690233	130.656340	1024.548067	-440.334987	218.720958	871.040369	-63.777622	284.774303	812.943261	-65.670165	307.879376	727.195255	-74.636228	312.865957	829.625644	-82.988465	342.899300	631.817883	-102.175857	326.462727	614.291403	-199.202650	275.107311	556.008998	-70.184538	249.782671	470.875911	-83.201643	186.134984	410.676219	-81.940483	272.397125	460.116065	-114.577892	130.467799	325.437791	-80.290698	138.814248	329.647638	-157.175180	48.695626	333.856090	-119.366662	257.205701	170.302244	-127.569415	182.945256	205.389798	-61.226993	257.020294	963.506317	-424.652167	341.065732	955.754774	-413.051005	353.140560	987.567631	-395.957781	415.144442	903.987709	-411.884702	495.517667	839.207658	-385.783369	502.935493	823.325869	-285.178980	319.198911	510.861676	-410.810647	331.648413	521.557393	-334.410541	242.088431	470.181339	-373.220353	412.851452	436.381137	-433.872032	450.993893	750.625226	-411.235059	428.192298	666.202724	-405.166435	365.345634	603.621258	-409.885548	449.106675	655.573836	-373.333580	502.343807	458.535375	-364.572669	-65.531928	852.824373	-239.797453	20.672029	84.762671	-441.965903	21.075832	84.113231	-43.898096	
